<?xml version="1.0" encoding="UTF-8"?>
<svg xmlns="http://www.w3.org/2000/svg" viewBox="0 0 800 800">
  <defs>
    <style>
      .cls-1 {
        fill: #fff;
      }

      .cls-2 {
        fill: #707786;
      }

      .cls-2, .cls-3 {
        stroke: #000;
        stroke-miterlimit: 10;
      }

      .cls-3 {
        fill: #2a2f39;
      }
    </style>
  </defs>
  <g id="Layer_5" data-name="Layer 5">
    <circle class="cls-1" cx="400" cy="400" r="400"/>
  </g>
  <g id="Symbol">
    <g id="Bot">
      <polyline id="Light" class="cls-2" points="210.35 449.1 399.76 569.22 591.71 446.54 591.71 576.03 401.03 699.72 210.35 579.63 210.35 450.55"/>
      <polyline id="Dark" class="cls-3" points="210.35 433.93 399.76 554.06 591.71 431.37 591.71 560.86 401.03 684.55 210.35 564.46 210.35 435.39"/>
    </g>
    <g id="Top">
      <polygon id="Light-2" data-name="Light" class="cls-2" points="399.76 490.14 111.6 302.37 99.76 294.74 99.76 310.08 399.76 505.54 646.14 346.03 646.14 330.63 399.76 490.14"/>
      <polygon id="Dark-2" data-name="Dark" class="cls-3" points="399.76 99.72 99.76 294.74 399.76 490.14 646.14 330.63 646.14 554.05 699.76 554.05 699.76 294.67 399.76 99.72"/>
      <rect class="cls-2" x="646.14" y="554.03" width="53.62" height="15"/>
    </g>
  </g>
</svg>